<?xml version="1.0" encoding="utf-8"?>
<svg viewBox="50.776 220.346 479.073 219.824" width="479.073" height="219.824" xmlns="http://www.w3.org/2000/svg" xmlns:bx="https://boxy-svg.com">
  <defs>
    <linearGradient gradientUnits="userSpaceOnUse" x1="186.644" y1="120.803" x2="186.644" y2="149.743" id="gradient-0" spreadMethod="pad" gradientTransform="matrix(0.724243, -0.647921, 0.293919, 0.269992, 11.3443, 223.550668)">
      <stop offset="0" style="stop-color: rgba(165, 215, 255, 1)"/>
      <stop offset="1" style="stop-color: rgb(126, 231, 135);"/>
    </linearGradient>
  </defs>
  <circle style="vector-effect: non-scaling-stroke; stroke: rgb(22, 27, 34); stroke-width: 5px; fill: rgb(126, 231, 135);" cx="186.644" cy="135.273" r="14.47" transform="matrix(1.769753, 0, 0, 1.915712, -138.294647, 66.227036)"/>
  <circle style="vector-effect: non-scaling-stroke; stroke: rgb(22, 27, 34); stroke-width: 5px; fill: rgb(165, 214, 255);" cx="186.644" cy="135.273" r="14.47" transform="matrix(1.769753, 0, 0, 1.915712, -27.480221, 66.227036)"/>
  <path d="M 217.625 322.874 H 265.42 L 265.42 315.052 L 277.218 325.482 L 265.42 335.913 L 265.42 328.091 H 217.625 V 322.874 Z" style="fill: rgb(22, 27, 34);" bx:shape="arrow 217.625 315.052 59.593 20.861 5.217 11.798 0 1@d9ca38e1"/>
  <circle style="vector-effect: non-scaling-stroke; stroke: rgb(22, 27, 34); stroke-width: 5px; fill: rgb(126, 231, 135);" cx="186.644" cy="135.273" r="14.47" transform="matrix(1.769753, 0, 0, 1.915712, -249.109482, 66.22702)"/>
  <path d="M 106.812 322.874 H 154.607 L 154.607 315.052 L 166.405 325.482 L 154.607 335.913 L 154.607 328.091 H 106.812 V 322.874 Z" style="fill: rgb(22, 27, 34);" bx:shape="arrow 106.812 315.052 59.593 20.861 5.217 11.798 0 1@f049d0cd"/>
  <circle style="vector-effect: non-scaling-stroke; stroke: rgb(22, 27, 34); stroke-width: 5px; fill: rgba(165, 215, 255, 0);" cx="186.644" cy="135.273" r="14.47" transform="matrix(1.769753, 0, 0, 1.915712, 83.334229, 66.227036)"/>
  <path d="M 328.438 322.874 H 376.233 L 376.233 315.052 L 388.031 325.482 L 376.233 335.913 L 376.233 328.091 H 328.438 V 322.874 Z" style="fill: rgb(22, 27, 34);" bx:shape="arrow 328.438 315.052 59.593 20.861 5.217 11.798 0 1@ce20c644"/>
  <circle style="vector-effect: non-scaling-stroke; stroke: rgb(22, 27, 34); stroke-width: 5px; fill: url(#gradient-0); paint-order: fill;" cx="186.644" cy="135.273" r="14.47" transform="matrix(1.769753, 0, 0, 1.915712, -27.480221, -6.215131)"/>
  <path d="M 267.385 300.355 H 333.968 L 333.968 292.574 L 347.788 302.949 L 333.968 313.324 L 333.968 305.543 H 267.385 V 300.355 Z" style="fill: rgb(22, 27, 34);" transform="matrix(0.82538, -0.564578, 0.551592, 0.834262, -174.967209, 207.214615)" bx:shape="arrow 267.385 292.574 80.403 20.75 5.188 13.82 0 1@0f46bdcd"/>
  <path d="M 273.282 300.752 H 340.567 L 340.567 292.963 L 354.37 303.351 L 340.567 313.738 L 340.567 305.95 H 273.282 V 300.752 Z" style="fill: rgb(22, 27, 34);" transform="matrix(0.871919, 0.489651, -0.477117, 0.878957, 232.037491, -134.864868)" bx:shape="arrow 273.282 292.963 81.088 20.775 5.198 13.803 0 1@eb65d087"/>
  <path d="M 87.006 169.32 H 95.896 V 187.074 H 113.667 V 195.951 H 95.896 V 213.704 H 87.006 V 195.951 H 69.235 V 187.074 H 87.006 Z" style="fill: rgba(201, 0, 0, 0.71);" transform="matrix(0.68209, 0.731268, -0.719698, 0.694495, 488.938385, 125.676582)" bx:shape="cross 69.235 169.32 44.432 44.384 8.877 8.89 0.5 1@c5389f06"/>
</svg>
